<?xml version="1.0" encoding="utf-8"?>
<!-- Generator: Adobe Illustrator 27.3.1, SVG Export Plug-In . SVG Version: 6.00 Build 0)  -->
<svg version="1.1" id="Слой_1" xmlns="http://www.w3.org/2000/svg" xmlns:xlink="http://www.w3.org/1999/xlink" x="0px" y="0px"
	 viewBox="0 0 16 20" style="enable-background:new 0 0 16 20;" xml:space="preserve">
<style type="text/css">
	.st0{fill:#0479FF;}
</style>
<g>
	<path class="st0" d="M12,20H4c-2.2,0-4-1.8-4-4V4c0-2.2,1.8-4,4-4h4c4.4,0,8,3.6,8,8v8C16,18.2,14.2,20,12,20z M4,2
		C2.9,2,2,2.9,2,4v12c0,1.1,0.9,2,2,2h8c1.1,0,2-0.9,2-2V8c0-3.3-2.7-6-6-6H4z"/>
</g>
<g>
	<path class="st0" d="M14.5,8h-2c-2.8,0-5-2.2-5-5V1.5c0-0.6,0.4-1,1-1c0.6,0,1,0.4,1,1V3c0,1.7,1.3,3,3,3h2c0.6,0,1,0.4,1,1
		S15.1,8,14.5,8z"/>
</g>
</svg>
