<?xml version="1.0" encoding="utf-8"?>
<!-- Generator: Adobe Illustrator 27.3.1, SVG Export Plug-In . SVG Version: 6.00 Build 0)  -->
<svg version="1.1" id="Слой_1" xmlns="http://www.w3.org/2000/svg" xmlns:xlink="http://www.w3.org/1999/xlink" x="0px" y="0px"
	 viewBox="0 0 300 300" style="enable-background:new 0 0 300 300;" xml:space="preserve">
<style type="text/css">
	.st0{fill:#0479FF;}
	.st1{fill:none;stroke:#FFFFFF;stroke-width:8;stroke-linecap:round;stroke-miterlimit:10;}
	.st2{fill:none;stroke:#FFFFFF;stroke-width:8;stroke-linecap:round;stroke-linejoin:round;stroke-miterlimit:10;}
</style>
<path class="st0" d="M0,300h300V0h0C134.3,0,0,134.3,0,300L0,300z"/>
<path class="st2" d="M196.5,177.2L196.5,177.2c-20.3,0-36.8-16.5-36.8-36.8V117h73.7v23.4C233.3,160.7,216.9,177.2,196.5,177.2z"/>
<path class="st2" d="M196.5,178.3L196.5,178.3c20.3,0,36.8,16.5,36.8,36.8v23.4h-73.7v-23.4C159.7,194.8,176.2,178.3,196.5,178.3z"
	/>
<line class="st2" x1="163.1" y1="155.8" x2="229.4" y2="155.8"/>
<line class="st2" x1="163.1" y1="208.5" x2="229.4" y2="208.5"/>
</svg>
