<?xml version="1.0" encoding="UTF-8"?> <svg xmlns="http://www.w3.org/2000/svg" width="86" height="86" viewBox="0 0 86 86" fill="none"><g clip-path="url(#clip0_127_72)"><mask id="mask0_127_72" style="mask-type:luminance" maskUnits="userSpaceOnUse" x="0" y="0" width="86" height="86"><path d="M86 0H0V86H86V0Z" fill="white"></path></mask><g mask="url(#mask0_127_72)"><path d="M41.1428 16.7489C39.8576 15.7495 38.5954 14.8689 37.3706 14.1311C31.2457 19.6822 26.2683 26.535 22.3389 33.7804C22.8622 35.7914 23.5054 37.8384 24.2784 39.8978C26.6345 34.8227 29.5656 30.0115 32.9784 25.5796C35.4091 22.3889 38.1314 19.4017 41.1428 16.7489Z" fill="#61A1DA"></path><path d="M66.6125 54.4519C68.1 53.8572 69.493 53.202 70.7893 52.4885C70.3484 50.4886 69.7778 48.4304 69.0872 46.3348C68.2307 48.3941 67.2545 50.4412 66.1716 52.4642C66.3497 53.1426 66.4926 53.7966 66.6125 54.4519Z" fill="#61A1DA"></path><path d="M19.3858 31.4583C17.8983 32.053 16.5053 32.7082 15.209 33.4217C16.9802 41.4653 20.3478 49.3142 24.7424 56.2725C26.7302 56.8201 28.8125 57.2839 30.9785 57.6292C28.418 53.9605 26.1716 50.0695 24.2785 46.0135C22.3919 42.0104 20.7846 37.7733 19.8269 33.4458C19.6486 32.7676 19.5057 32.1136 19.3858 31.4583Z" fill="#61A1DA"></path><path d="M66.1716 33.446C64.2607 42.092 60.0598 50.4038 55.02 57.6292C57.1981 57.2598 59.2924 56.7957 61.2924 56.2373C65.5682 49.1966 68.9798 41.5575 70.7783 33.4943C69.5172 32.7916 68.1242 32.1256 66.6005 31.5065C66.4817 32.1365 66.3507 32.7918 66.1716 33.446Z" fill="#61A1DA"></path><path d="M62.2565 9.59584C65.4339 11.4286 67.2908 15.856 67.4933 21.8899C69.0643 22.4251 70.5762 23.02 72.0154 23.6633C72.1373 17.579 70.8928 10.403 65.7079 6.51095C59.5631 1.89759 51.048 4.49245 45.1539 8.2151C46.4272 9.10775 47.6893 10.1073 48.9383 11.2022C52.3901 9.34632 58.0311 7.15623 62.2565 9.59584Z" fill="#61A1DA"></path><path d="M36.2876 25.2234C38.4887 25.0201 40.727 24.9254 42.9998 24.9254C45.3206 24.9254 47.5582 25.0209 49.724 25.2111C48.2958 23.4739 46.8436 21.9029 45.3921 20.4748C43.81 20.4264 42.2257 20.4264 40.6437 20.4748C39.156 21.9272 37.7038 23.5092 36.2876 25.2234Z" fill="#61A1DA"></path><path d="M18.5062 21.9261C18.6405 17.669 19.5926 12.1883 23.5285 9.72552C27.9988 6.92861 34.0732 9.46827 38.1292 11.8276C48.7345 17.9988 56.6153 28.9447 61.721 39.8853C62.4949 37.8259 63.1372 35.7909 63.6605 33.7801C60.2501 27.4925 56.0599 21.5608 51.0444 16.4474C46.2057 11.5154 40.3742 6.95266 33.6732 4.92856C28.3156 3.3101 22.3138 3.84007 18.4283 8.23248C14.7582 12.3807 13.87 18.365 13.9843 23.7104C15.4246 23.0683 16.9352 22.4615 18.5062 21.9261Z" fill="#61A1DA"></path><path d="M40.3242 50.0364C41.1754 50.36 42.0854 50.525 42.9969 50.525C46.8322 50.525 50.1424 47.5177 50.4941 43.6966C50.8456 39.874 48.1575 36.2967 44.3756 35.5975C40.5953 34.8985 36.7863 37.2568 35.7478 40.961C34.7084 44.6659 36.7258 48.6698 40.3242 50.0364Z" fill="#61A1DA"></path><path d="M48.6288 71.7803C50.1526 70.4004 48.0219 72.3519 48.6288 71.7803Z" fill="#61A1DA"></path><path d="M41.1428 69.1624C40.6425 68.7215 40.1314 68.2576 39.6191 67.7814C37.3102 67.6979 35.0607 67.5197 32.8828 67.2461C34.3462 68.8887 35.8457 70.4113 37.3698 71.7802C38.6317 71.0304 39.894 70.1498 41.1428 69.1624Z" fill="#61A1DA"></path><path d="M67.4931 63.9852C67.3623 68.1224 66.4793 73.2853 62.8874 75.9042C58.7811 78.897 52.9319 76.8134 48.9499 74.685C47.6999 75.7678 46.4268 76.7795 45.1536 77.6964C51.1325 81.3214 59.4749 84.0588 65.6923 79.4137C70.9069 75.5183 72.1449 68.3037 72.0152 62.2007C70.5747 62.843 69.0643 63.4376 67.4931 63.9852Z" fill="#61A1DA"></path><path d="M53.1158 67.2342C50.9025 67.5079 48.6531 67.6982 46.3673 67.7694C43.6088 70.4632 40.4578 72.8787 37.0604 74.708C33.9996 76.355 30.3859 77.7534 26.85 77.3248C19.4805 76.4332 18.2348 67.4605 18.4823 61.5093V61.45C18.602 58.4322 19.0463 55.3625 19.8146 52.4413C18.7438 50.4183 17.7676 48.3832 16.9111 46.3362C14.9804 52.1939 13.7402 58.429 14.0095 64.62C14.2164 69.3806 15.387 74.5192 18.7833 78.0628C27.446 87.099 41.511 78.4806 48.6288 71.7805C50.1526 70.3993 51.6524 68.8767 53.1158 67.2342Z" fill="#61A1DA"></path><path d="M74.2179 27.4633C75.0378 27.9152 80.6849 31.0212 74.1701 27.4364C74.1119 27.4046 74.1085 27.4029 74.1477 27.4246C69.4304 24.8422 64.2283 23.1369 58.9725 22.0569C60.3171 23.8181 61.6022 25.6751 62.8161 27.6267C68.9346 29.3748 75.949 32.4433 79.7158 37.8271C81.1792 39.9193 81.9291 42.4075 81.267 44.9317C80.5602 47.632 78.5755 49.8309 76.4648 51.5602C71.5193 55.6126 65.1416 57.9172 58.966 59.2805C51.8295 60.856 44.4435 61.3145 37.1586 60.7714C31.7933 60.3711 26.3203 59.4675 21.2321 57.6774C21.0179 59.1924 20.8517 60.7284 20.8517 62.26C29.5679 65.0074 38.8979 65.875 47.998 65.3176C56.9288 64.77 66.3058 62.8922 74.1703 58.4517C79.961 55.5568 86.0002 49.8914 86.0002 42.9562C86 35.8658 79.9331 30.6194 74.2179 27.4633Z" fill="#61A1DA"></path><path d="M5.16245 39.7371C7.46806 34.3618 13.8008 31.0592 18.9594 29.078C20.3304 28.5128 21.7541 28.028 23.1845 27.6378C24.3862 25.6983 25.6836 23.8292 27.0402 22.056C21.7916 23.1346 16.512 24.8166 11.8306 27.4588C11.5921 27.5774 11.3665 27.6973 11.1402 27.8392H11.1282C5.57496 31.042 -0.169632 36.3049 0.0040881 43.2546C0.177809 50.2318 6.18072 55.365 11.8308 58.4741C11.9738 56.9031 12.2111 55.2967 12.5212 53.6784C7.87691 50.8139 2.61054 45.6839 5.16245 39.7371Z" fill="#61A1DA"></path></g></g><defs><clipPath id="clip0_127_72"><rect width="86" height="86" fill="white"></rect></clipPath></defs></svg> 