<svg width="16" height="16" viewBox="0 0 16 16" fill="none" xmlns="http://www.w3.org/2000/svg">
<path d="M14.16 2.84309H10.9C10.7767 2.05109 10.3743 1.32926 9.76549 0.8079C9.15668 0.286541 8.38154 0 7.58 0C6.77846 0 6.00332 0.286541 5.39451 0.8079C4.78569 1.32926 4.38331 2.05109 4.26 2.84309H1C0.734784 2.84309 0.48043 2.94844 0.292893 3.13598C0.105357 3.32352 0 3.57787 0 3.84309C0 4.1083 0.105357 4.36266 0.292893 4.55019C0.48043 4.73773 0.734784 4.84309 1 4.84309H1.83L2.4 12.3631C2.45806 13.1182 2.79959 13.8234 3.35603 14.3372C3.91247 14.851 4.64264 15.1353 5.4 15.1331H9.78C10.5374 15.1353 11.2675 14.851 11.824 14.3372C12.3804 13.8234 12.7219 13.1182 12.78 12.3631L13.35 4.84309H14.18C14.4452 4.84309 14.6996 4.73773 14.8871 4.55019C15.0746 4.36266 15.18 4.1083 15.18 3.84309C15.18 3.57787 15.0746 3.32352 14.8871 3.13598C14.6996 2.94844 14.4452 2.84309 14.18 2.84309H14.16ZM7.58 2.01309C7.8485 2.0116 8.11143 2.08963 8.33565 2.23733C8.55988 2.38504 8.73537 2.59581 8.84 2.84309H6.32C6.42463 2.59581 6.60012 2.38504 6.82435 2.23733C7.04857 2.08963 7.3115 2.0116 7.58 2.01309V2.01309ZM10.77 12.2131C10.7498 12.4642 10.6357 12.6985 10.4503 12.869C10.2649 13.0396 10.0219 13.1339 9.77 13.1331H5.39C5.13808 13.1339 4.89514 13.0396 4.70974 12.869C4.52434 12.6985 4.41015 12.4642 4.39 12.2131L3.83 4.84309H11.33L10.77 12.2131Z" fill="#FF047D"/>
</svg>
